<svg width="691" height="688" viewBox="0 0 691 688" fill="none" xmlns="http://www.w3.org/2000/svg">
<path d="M474.046 687.124H657.744C694.07 687.124 739.57 667.772 758.873 644.073L937.745 424.999C957.048 401.353 943.154 381.948 906.828 381.948H723.131C686.805 381.948 641.305 401.3 622.001 424.999L443.13 644.073C423.827 667.719 437.721 687.124 474.046 687.124Z" fill="white" fill-opacity="0.05"/>
<path d="M39.6213 687.124H223.319C259.645 687.124 305.145 667.772 324.448 644.073L503.32 424.999C522.623 401.353 508.729 381.948 472.403 381.948H288.705C252.38 381.948 206.879 401.3 187.576 424.999L8.70459 644.126C-10.5985 667.772 3.29548 687.177 39.6213 687.177V687.124Z" fill="white" fill-opacity="0.05"/>
<path d="M474.046 0H657.743C694.069 0 739.569 19.3519 758.872 43.0513L937.744 262.125C957.047 285.771 943.153 305.176 906.827 305.176H723.13C686.804 305.176 641.304 285.824 622.001 262.125L443.182 43.0513C423.826 19.3519 437.72 0 474.046 0Z" fill="white" fill-opacity="0.05"/>
<path d="M39.6201 0H223.318C259.644 0 305.144 19.3519 324.447 43.0513L503.319 262.125C522.622 285.771 508.728 305.176 472.402 305.176H288.704C252.378 305.176 206.878 285.824 187.575 262.125L8.70337 43.0513C-10.5997 19.3519 3.29426 0 39.6201 0Z" fill="white" fill-opacity="0.05"/>
</svg>
