<svg width="264" height="53" viewBox="0 0 264 53" fill="none" xmlns="http://www.w3.org/2000/svg">
<path d="M25.6372 37.1608H35.5719C37.5364 37.1608 39.9971 36.1142 41.0411 34.8325L50.7148 22.9846C51.7587 21.7058 51.0073 20.6563 49.0427 20.6563H39.1081C37.1435 20.6563 34.6828 21.7029 33.6388 22.9846L23.9652 34.8325C22.9212 36.1113 23.6726 37.1608 25.6372 37.1608Z" fill="white"/>
<path d="M2.14275 37.1608H12.0774C14.042 37.1608 16.5027 36.1142 17.5466 34.8325L27.2203 22.9846C28.2643 21.7058 27.5128 20.6563 25.5483 20.6563H15.6136C13.6491 20.6563 11.1883 21.7029 10.1444 22.9846L0.470723 34.8354C-0.57322 36.1142 0.178189 37.1637 2.14275 37.1637V37.1608Z" fill="white"/>
<path d="M25.6372 0H35.5718C37.5364 0 39.9971 1.04658 41.0411 2.32828L50.7148 14.1762C51.7587 15.455 51.0073 16.5044 49.0427 16.5044H39.1081C37.1435 16.5044 34.6828 15.4579 33.6388 14.1762L23.968 2.32828C22.9212 1.04658 23.6726 0 25.6372 0Z" fill="white"/>
<path d="M2.14272 0H12.0774C14.0419 0 16.5027 1.04658 17.5466 2.32828L27.2203 14.1762C28.2642 15.455 27.5128 16.5044 25.5483 16.5044H15.6136C13.649 16.5044 11.1883 15.4579 10.1444 14.1762L0.470692 2.32828C-0.57325 1.04658 0.178159 0 2.14272 0Z" fill="white"/>
<path d="M94.2621 21.9467H69.9474C70.3145 28.1143 74.7111 31.4146 79.1106 31.4748C83.2634 31.4748 86.5014 29.5824 87.7862 26.2821H93.5279C92.7335 31.1078 88.5176 36.9715 79.1708 36.9085C69.457 36.9085 63.288 29.4562 63.288 19.8076C63.288 10.159 69.0297 2.76699 79.1708 2.76699C88.5778 2.76699 94.3826 9.48518 94.3826 19.6872C94.3826 20.3582 94.3826 21.1524 94.2593 21.9467H94.2621ZM70.0708 16.9374H87.8493C87.2384 11.6844 84.3045 8.26369 79.1135 8.26369C73.9224 8.26369 70.8652 11.8077 70.0708 16.9374Z" fill="white"/>
<path d="M115.889 36.7536H109.17L95.851 3.28311H103.425L112.588 28.6907L121.752 3.28311H129.266L115.887 36.7536H115.889Z" fill="white"/>
<path d="M162.193 21.9467H137.878C138.245 28.1143 142.642 31.4146 147.041 31.4748C151.194 31.4748 154.432 29.5824 155.717 26.2821H161.459C160.664 31.1078 156.448 36.9715 147.102 36.9085C137.388 36.9085 131.219 29.4562 131.219 19.8076C131.219 10.159 136.96 2.76699 147.102 2.76699C156.509 2.76699 162.313 9.48518 162.313 19.6872C162.313 20.3582 162.313 21.1524 162.19 21.9467H162.193ZM138.002 16.9374H155.78C155.169 11.6844 152.235 8.26369 147.044 8.26369C141.853 8.26369 138.796 11.8077 138.002 16.9374Z" fill="white"/>
<path d="M188.802 8.754C181.471 8.4472 176.524 11.6242 176.524 19.627V36.6074H169.498V3.01358H175.913L176.524 8.63358C177.746 5.76336 181.044 2.46305 188.865 2.64656L188.805 8.754H188.802Z" fill="white"/>
<path d="M256.595 3.28311L247.005 27.8964L236.68 3.28311H229.716L243.574 36.6676L236.987 53H243.402L263.378 3.28311H256.595Z" fill="white"/>
<path d="M218.818 3.39494L217.315 6.77554C217.315 6.77554 214.31 3.01932 207.547 3.01932C199.282 3.01932 192.143 10.1561 192.143 19.5496C192.143 28.943 199.282 36.0769 207.547 36.0769C213.934 36.0769 216.94 32.3207 216.94 32.3207V37.935C216.94 42.3966 214.112 45.5908 209.615 46.1155C209.13 46.1929 208.643 46.2474 208.155 46.2531C203.563 46.2531 199.984 44.16 198.567 40.5156H192.221C193.098 45.8488 197.759 52.329 208.089 52.2631C209.262 52.2631 210.383 52.1599 211.456 51.9706C211.456 51.9678 211.456 51.962 211.453 51.9592C219.013 50.7606 223.702 45.2324 223.702 37.9378V3.39494H218.818ZM208.373 29.6914C203.414 29.6914 198.903 25.1839 198.903 19.5496C198.903 13.9152 203.411 9.40776 208.296 9.40776C213.18 9.40776 217.688 13.9152 217.688 19.5496C217.688 25.1839 213.18 29.6914 208.37 29.6914H208.373Z" fill="white"/>
</svg>
